<svg width="59" height="53" viewBox="0 0 59 53" fill="none" xmlns="http://www.w3.org/2000/svg">
<rect x="2" y="1.5" width="55" height="50" rx="10" stroke="#FFFCF2" stroke-width="3"/>
<path fill-rule="evenodd" clip-rule="evenodd" d="M17 17.8636C17 17.502 17.1463 17.1551 17.4068 16.8994C17.6673 16.6437 18.0205 16.5 18.3889 16.5H40.6111C40.9795 16.5 41.3327 16.6437 41.5932 16.8994C41.8537 17.1551 42 17.502 42 17.8636C42 18.2253 41.8537 18.5721 41.5932 18.8279C41.3327 19.0836 40.9795 19.2273 40.6111 19.2273H18.3889C18.0205 19.2273 17.6673 19.0836 17.4068 18.8279C17.1463 18.5721 17 18.2253 17 17.8636ZM17 26.5C17 26.1383 17.1463 25.7915 17.4068 25.5358C17.6673 25.28 18.0205 25.1364 18.3889 25.1364H40.6111C40.9795 25.1364 41.3327 25.28 41.5932 25.5358C41.8537 25.7915 42 26.1383 42 26.5C42 26.8617 41.8537 27.2085 41.5932 27.4642C41.3327 27.72 40.9795 27.8636 40.6111 27.8636H18.3889C18.0205 27.8636 17.6673 27.72 17.4068 27.4642C17.1463 27.2085 17 26.8617 17 26.5ZM18.3889 33.7727C18.0205 33.7727 17.6673 33.9164 17.4068 34.1721C17.1463 34.4279 17 34.7747 17 35.1364C17 35.498 17.1463 35.8449 17.4068 36.1006C17.6673 36.3563 18.0205 36.5 18.3889 36.5H40.6111C40.9795 36.5 41.3327 36.3563 41.5932 36.1006C41.8537 35.8449 42 35.498 42 35.1364C42 34.7747 41.8537 34.4279 41.5932 34.1721C41.3327 33.9164 40.9795 33.7727 40.6111 33.7727H18.3889Z" fill="#FFFCF2"/>
</svg>
