<svg width="59" height="70" viewBox="0 0 59 70" fill="none" xmlns="http://www.w3.org/2000/svg">
<path fill-rule="evenodd" clip-rule="evenodd" d="M14.75 62.5H44.25C46.206 62.5 48.0818 61.7098 49.4649 60.3033C50.848 58.8968 51.625 56.9891 51.625 55V31.215C51.6248 30.2296 51.4336 29.2538 51.0624 28.3436C50.6912 27.4333 50.1473 26.6064 49.4617 25.91L33.5267 9.695C32.1442 8.28991 30.2697 7.50042 28.3151 7.5H14.75C12.794 7.5 10.9182 8.29018 9.53509 9.6967C8.15201 11.1032 7.375 13.0109 7.375 15V55C7.375 56.9891 8.15201 58.8968 9.53509 60.3033C10.9182 61.7098 12.794 62.5 14.75 62.5ZM59 31.215C59.0002 29.2445 58.6187 27.2932 57.8771 25.4727C57.1356 23.6522 56.0486 21.9981 54.6782 20.605L38.7433 4.4C37.3732 3.00493 35.7461 1.89824 33.955 1.14325C32.164 0.388254 30.2441 -0.00023657 28.3052 1.08078e-07H14.75C10.8381 1.08078e-07 7.08634 1.58035 4.32018 4.3934C1.55401 7.20644 0 11.0218 0 15V55C0 58.9782 1.55401 62.7936 4.32018 65.6066C7.08634 68.4196 10.8381 70 14.75 70H44.25C48.1619 70 51.9137 68.4196 54.6798 65.6066C57.446 62.7936 59 58.9782 59 55V31.215ZM14.75 36.25C14.75 35.2554 15.1385 34.3016 15.83 33.5984C16.5216 32.8951 17.4595 32.5 18.4375 32.5H40.5625C41.5405 32.5 42.4784 32.8951 43.17 33.5984C43.8615 34.3016 44.25 35.2554 44.25 36.25C44.25 37.2446 43.8615 38.1984 43.17 38.9016C42.4784 39.6049 41.5405 40 40.5625 40H18.4375C17.4595 40 16.5216 39.6049 15.83 38.9016C15.1385 38.1984 14.75 37.2446 14.75 36.25ZM18.4375 47.5C17.4595 47.5 16.5216 47.8951 15.83 48.5984C15.1385 49.3016 14.75 50.2554 14.75 51.25C14.75 52.2446 15.1385 53.1984 15.83 53.9016C16.5216 54.6049 17.4595 55 18.4375 55H30.7292C31.7072 55 32.6451 54.6049 33.3366 53.9016C34.0282 53.1984 34.4167 52.2446 34.4167 51.25C34.4167 50.2554 34.0282 49.3016 33.3366 48.5984C32.6451 47.8951 31.7072 47.5 30.7292 47.5H18.4375Z" fill="#252422"/>
</svg>
