<svg width="59" height="70" viewBox="0 0 59 70" fill="none" xmlns="http://www.w3.org/2000/svg">
<path fill-rule="evenodd" clip-rule="evenodd" d="M44.25 62.5H14.75C12.794 62.5 10.9182 61.7098 9.53509 60.3033C8.15201 58.8968 7.375 56.9891 7.375 55V15C7.375 13.0109 8.15201 11.1032 9.53509 9.6967C10.9182 8.29018 12.794 7.5 14.75 7.5H28.3052C29.2743 7.50021 30.2337 7.69462 31.1288 8.0721C32.0239 8.44959 32.8371 9.00276 33.5218 9.7L49.4666 25.91C50.8483 27.316 51.6246 29.2223 51.625 31.21V55C51.625 56.9891 50.848 58.8968 49.4649 60.3033C48.0818 61.7098 46.206 62.5 44.25 62.5ZM54.6782 20.605C56.0486 21.9982 57.1356 23.6522 57.8771 25.4727C58.6187 27.2932 59.0002 29.2445 59 31.215V55C59 58.9782 57.446 62.7936 54.6798 65.6066C51.9137 68.4197 48.1619 70 44.25 70H14.75C10.8381 70 7.08634 68.4197 4.32018 65.6066C1.55401 62.7936 0 58.9782 0 55V15C0 11.0218 1.55401 7.20644 4.32018 4.3934C7.08634 1.58035 10.8381 1.07614e-07 14.75 1.07614e-07H28.3052C30.2429 -0.00023592 32.1616 0.387786 33.9518 1.1419C35.742 1.89601 37.3685 3.00143 38.7384 4.395L54.6733 20.6L54.6782 20.605ZM23.3542 17.5C22.3762 17.5 21.4383 17.8951 20.7467 18.5983C20.0552 19.3016 19.6667 20.2554 19.6667 21.25V31.25H18.4375C17.4595 31.25 16.5216 31.6451 15.83 32.3484C15.1385 33.0516 14.75 34.0054 14.75 35C14.75 35.9946 15.1385 36.9484 15.83 37.6516C16.5216 38.3549 17.4595 38.75 18.4375 38.75H19.6667V42.5H18.4375C17.4595 42.5 16.5216 42.8951 15.83 43.5984C15.1385 44.3016 14.75 45.2554 14.75 46.25C14.75 47.2446 15.1385 48.1984 15.83 48.9016C16.5216 49.6049 17.4595 50 18.4375 50H19.6667V51.25C19.6667 52.2446 20.0552 53.1984 20.7467 53.9016C21.4383 54.6049 22.3762 55 23.3542 55C24.3322 55 25.2701 54.6049 25.9616 53.9016C26.6532 53.1984 27.0417 52.2446 27.0417 51.25V50H30.7292C31.7072 50 32.6451 49.6049 33.3366 48.9016C34.0282 48.1984 34.4167 47.2446 34.4167 46.25C34.4167 45.2554 34.0282 44.3016 33.3366 43.5984C32.6451 42.8951 31.7072 42.5 30.7292 42.5H27.0417V38.75H31.3437C34.1147 38.75 36.7722 37.6306 38.7315 35.638C40.6909 33.6454 41.7917 30.9429 41.7917 28.125C41.7917 25.3071 40.6909 22.6046 38.7315 20.612C36.7722 18.6194 34.1147 17.5 31.3437 17.5H23.3542ZM31.3437 31.25H27.0417V25H31.3437C32.1587 25 32.9403 25.3292 33.5166 25.9153C34.0929 26.5013 34.4167 27.2962 34.4167 28.125C34.4167 28.9538 34.0929 29.7487 33.5166 30.3347C32.9403 30.9208 32.1587 31.25 31.3437 31.25Z" fill="#252422"/>
</svg>
