<svg width="415" height="189" viewBox="0 0 415 189" fill="none" xmlns="http://www.w3.org/2000/svg">
<path d="M327.101 188V94.8812H414.499V188H388.426V109.913L394.279 115.766H347.321L353.041 109.913V188H327.101Z" fill="white"/>
<path d="M217.977 188V94.8812H243.917V149.555L282.362 94.8812H307.105V188H281.165V133.459L242.853 188H217.977Z" fill="white"/>
<path d="M44.3423 188.743V87.3102L13.3027 111.144L0 93.4073L121.941 0.288452L166.284 34.0995V11.374H199.54V59.5963L244 95L230.58 111.144L199.54 87.3102V188.743H133.027V122.23H110.856V188.743H44.3423ZM66.5135 166.572H88.6846V100.059H155.198V166.572H177.369V70.4047L121.941 28.2795L66.5135 70.4047V166.572ZM99.7702 78.1646H144.113C144.113 72.2523 141.895 67.4024 137.461 63.6148C133.027 59.8272 127.854 57.9335 121.941 57.9335C116.029 57.9335 110.856 59.8272 106.422 63.6148C101.987 67.4024 99.7702 72.2523 99.7702 78.1646Z" fill="#FFFCF2"/>
</svg>