<?xml version="1.0" encoding="utf-8" ?>
<svg xmlns="http://www.w3.org/2000/svg" xmlns:xlink="http://www.w3.org/1999/xlink" width="1024" height="1024">
	<path fill="#252422" transform="scale(1.6 1.6)" d="M421.837 173.319C412.299 164.033 413.027 146.525 426.14 143.019C432.804 141.237 440.826 142.053 447.705 142.052L472.561 142.079C492.985 142.244 499.062 163.197 484.998 173.078C471.78 175.175 435.521 174.311 421.837 173.319Z"/>
	<path fill="#3C4958" transform="scale(1.6 1.6)" d="M421.837 173.319C435.521 174.311 471.78 175.175 484.998 173.078L484.951 220.025C484.954 225.363 485.617 235.132 484.965 239.83C479.672 237.483 474.658 233.632 469.696 230.611L442.471 214.288C435.508 210.094 428.637 205.577 421.236 202.185C421.816 196.455 420.754 176.453 421.837 173.319Z"/>
	<path fill="#EB5E28" transform="scale(1.6 1.6)" d="M140.146 288.17C132.436 287.57 123.31 289.943 116.173 286.055C108.317 281.776 103.422 270.697 107.995 262.422C111.585 255.927 122.942 251.007 129.1 247.269L289.696 150.736C309.05 139.277 308.75 135.506 327.803 146.75L410.415 195.576C414.079 197.689 417.552 200.106 421.236 202.185C428.637 205.577 435.508 210.094 442.471 214.288L469.696 230.611C474.658 233.632 479.672 237.483 484.965 239.83C492.306 243.758 516.775 256.432 522.18 261.353C531.013 269.393 524.872 284.068 514.48 287.141C504.28 290.157 492.288 287.605 481.761 288.165C474.806 287.576 462.786 288.438 455.311 288.437L231.009 288.434C200.747 288.436 170.393 288.929 140.146 288.17Z"/>
	<path fill="#252422" transform="scale(1.6 1.6)" d="M265.3 344.929C296.965 344.519 331.252 343.86 362.84 345.01C364.709 379.616 362.429 416.01 363.283 450.984L480.89 451.017C487.432 451.02 494.007 451.154 500.541 450.786C518.423 451.103 515.435 467.105 515.382 479.687C525.155 479.699 537.821 477.012 545.9 483.773C558.288 494.141 552.584 514.188 533.576 515.074C523.42 515.548 513.11 515.201 502.939 515.201L106.462 515.202C96.8881 515.203 84.8281 517.674 77.1513 510.458C69.9797 503.718 69.5275 491.473 76.6435 484.511C84.7637 476.566 98.2458 479.627 108.469 479.67C106.489 448.418 112.88 450.906 138.79 451.003L220.628 451.012C235.494 451.013 250.384 451.184 265.246 450.959L265.208 385.16C265.209 371.757 265.036 358.328 265.3 344.929Z"/>
	<path fill="white" transform="scale(1.6 1.6)" d="M140.146 288.17C170.393 288.929 200.747 288.436 231.009 288.434L455.311 288.437C462.786 288.438 474.806 287.576 481.761 288.165L482.04 288.216C495.469 290.568 492.165 291.615 492.565 304.541C493.928 348.665 492.781 392.308 493.345 436.231C493.427 442.645 496.88 450.164 487.252 450.409L487.322 450.151L486.832 450.421C488.328 450.511 500.271 450.569 500.541 450.786C494.007 451.154 487.432 451.02 480.89 451.017L363.283 450.984C362.429 416.01 364.709 379.616 362.84 345.01C331.252 343.86 296.965 344.519 265.3 344.929C265.036 358.328 265.209 371.757 265.208 385.16L265.246 450.959C250.384 451.184 235.494 451.013 220.628 451.012L138.79 451.003C138.394 449.974 137.803 449.234 137.217 448.328C133.354 442.361 134.961 428.958 134.887 422.002L134.664 370.937C134.681 367.837 134.928 364.749 134.889 361.645L134.302 296.867C134.184 287.549 132.281 289.706 140.146 288.17Z"/>
	<path fill="#252422" transform="scale(1.6 1.6)" d="M409.087 308.47C426.748 308.435 444.526 308.013 462.171 308.691L462.193 336.356C462.201 341.209 462.378 346.103 462.203 350.951L461.913 350.735L462.111 351.134L461.844 351.235C444.277 351.974 426.68 350.959 409.107 351.873C408.824 337.425 408.989 322.921 409.087 308.47Z"/>
	<path fill="#252422" transform="scale(1.6 1.6)" d="M408.945 367.163C426.376 367.912 444.715 367.456 462.227 367.289L462.221 410.307C444.587 410.277 426.787 409.778 409.177 410.599C408.711 396.137 409.189 381.635 408.945 367.163Z"/>
	<path fill="#252422" transform="scale(1.6 1.6)" d="M169.617 367.167C187.513 367.925 205.709 367.507 223.619 367.278C223.186 381.445 222.981 396.084 223.751 410.234C219.218 410.855 211.945 410.266 207.167 410.261L169.701 410.324C168.763 397.112 169.096 380.442 169.617 367.167Z"/>
	<path fill="#252422" transform="scale(1.6 1.6)" d="M169.356 308.382C187.324 308.676 205.329 308.448 223.301 308.454C223.761 321.426 224.247 338.672 223.38 351.602C206.725 350.619 186.189 351.131 169.452 351.574C169.202 346.387 169.414 341.091 169.42 335.891L169.356 308.382Z"/>
</svg>
