<svg width="89" height="73" viewBox="0 0 89 73" fill="none" xmlns="http://www.w3.org/2000/svg">
<path fill-rule="evenodd" clip-rule="evenodd" d="M29.0015 38.0864L53.0548 22.5446C53.9918 21.947 55.1144 21.7659 56.1772 22.0409C57.2401 22.3158 58.1569 23.0245 58.7274 24.0122C59.2978 24.9998 59.4756 26.1861 59.2218 27.3118C58.968 28.4376 58.3033 29.4114 57.3729 30.0206L36.3566 43.5999L53.9383 62.2021C54.7238 63.0333 55.6944 63.6419 56.7607 63.9721C57.827 64.3023 58.9547 64.3433 60.04 64.0914C61.1252 63.8395 62.1331 63.3027 62.9707 62.5306C63.8083 61.7585 64.4487 60.7758 64.8329 59.6731L79.6978 16.9902C80.021 16.0674 80.1284 15.0755 80.0109 14.0992C79.8934 13.1229 79.5544 12.1912 79.0229 11.3834C78.4913 10.5757 77.783 9.91583 76.9583 9.4602C76.1335 9.00456 75.2168 8.76664 74.2864 8.76671H73.7066C73.1544 8.76671 72.5967 8.84264 72.0611 9.00033L11.1548 26.3351C10.3072 26.5799 9.56247 27.1199 9.041 27.8679C8.51953 28.6158 8.25183 29.5279 8.28121 30.4567C8.31059 31.3855 8.63532 32.2767 9.20288 32.9861C9.77045 33.6955 10.5477 34.1817 11.4088 34.3659L29.0015 38.0864ZM9.7854 42.9574L27.599 46.7246L48.0851 68.3931C49.8545 70.2607 52.0395 71.6277 54.439 72.3684C56.8385 73.1092 59.3756 73.1999 61.817 72.6323C64.2584 72.0646 66.5256 70.8569 68.4102 69.12C70.2949 67.3831 71.7364 65.173 72.6022 62.6927L87.4726 20.0098C88.2581 17.7621 88.5179 15.3469 88.23 12.97C87.9421 10.5932 87.1149 8.32525 85.819 6.35965C84.5232 4.39406 82.7971 2.78913 80.788 1.68175C78.7789 0.574367 76.5464 -0.00261688 74.2809 8.92234e-06H73.7066C72.4255 8.92234e-06 71.1444 0.175227 69.9075 0.531502L9.00129 17.878C6.35058 18.6373 4.02001 20.3212 2.38741 22.6569C0.754815 24.9925 -0.0841032 27.8429 0.00666197 30.746C0.0974271 33.6491 1.11255 36.4347 2.88747 38.6512C4.66239 40.8676 7.09305 42.3851 9.7854 42.9574Z" fill="#252422"/>
</svg>
