<svg width="74" height="80" viewBox="0 0 74 80" fill="none" xmlns="http://www.w3.org/2000/svg">
<path d="M71.8747 17.7318C70.5114 12.8685 67.8147 9.01848 63.858 6.29515C58.8647 2.85515 53.1213 1.63515 48.1614 0.895148C41.298 -0.128185 35.0814 -0.271519 29.1614 0.451814C23.608 1.13181 19.428 2.21848 15.6113 3.97181C8.13468 7.40515 3.64801 12.9651 2.27801 20.4918C1.61135 24.1451 1.16468 27.4485 0.904681 30.5985C0.304681 37.8818 0.848015 44.3285 2.56801 50.3018C4.24135 56.1251 7.16802 60.2885 11.5147 63.0218C12.6247 63.7185 14.038 64.2218 15.4113 64.7085C16.098 64.9518 16.758 65.1918 17.3347 65.4452V77.2118C17.3347 78.7518 18.5814 79.9985 20.1213 79.9985C20.848 79.9985 21.5447 79.7151 22.0647 79.2085L32.9213 68.6485C33.3947 68.1085 33.3947 68.1085 33.8814 68.0985C37.5914 68.0252 41.3814 67.8818 45.148 67.6785C49.7113 67.4285 54.998 66.9885 59.978 64.9118C64.5347 63.0085 67.8614 59.9885 69.858 55.9385C71.9414 51.7118 73.1814 47.1318 73.6447 41.9418C74.458 32.8152 73.878 24.8951 71.8747 17.7318ZM52.9714 52.4651C51.8814 54.2485 50.248 55.4818 48.328 56.2818C46.9247 56.8685 45.4913 56.7451 44.108 56.1585C32.4947 51.2451 23.3913 43.4985 17.3713 32.3685C16.1313 30.0751 15.268 27.5785 14.278 25.1551C14.0747 24.6551 14.0913 24.0718 14.0013 23.5285C14.088 19.6118 17.0913 17.4085 20.1247 16.7418C21.2847 16.4851 22.3113 16.8951 23.1714 17.7185C25.5513 19.9918 27.4347 22.6251 28.8514 25.5785C29.4713 26.8751 29.1913 28.0218 28.1347 28.9851C27.918 29.1851 27.688 29.3718 27.4513 29.5485C25.0413 31.3618 24.688 32.7318 25.9713 35.4618C28.158 40.1051 31.788 43.2218 36.4847 45.1552C37.7214 45.6652 38.888 45.4118 39.8347 44.4085C39.9613 44.2752 40.1047 44.1451 40.198 43.9918C42.0514 40.9018 44.7347 41.2085 47.2147 42.9718C48.8447 44.1285 50.4247 45.3485 52.038 46.5285C54.4847 48.3318 54.4647 50.0252 52.9714 52.4651ZM39.038 20.4751C38.4147 20.4751 37.788 20.5252 37.1747 20.6285C36.1347 20.8052 35.1547 20.1018 34.9813 19.0618C34.808 18.0251 35.508 17.0418 36.548 16.8685C37.3647 16.7351 38.2047 16.6651 39.038 16.6651C47.288 16.6651 54.0014 23.3785 54.0014 31.6285C54.0014 32.4651 53.9314 33.3051 53.7947 34.1218C53.638 35.0518 52.8314 35.7118 51.918 35.7118C51.8147 35.7118 51.708 35.7052 51.6014 35.6852C50.5647 35.5085 49.8647 34.5285 50.038 33.4918C50.1414 32.8852 50.1914 32.2585 50.1914 31.6318C50.1914 25.4785 45.188 20.4751 39.038 20.4751ZM47.3347 32.8551C47.3347 33.9052 46.4814 34.7585 45.4314 34.7585C44.3814 34.7585 43.528 33.9052 43.528 32.8551C43.528 29.7052 40.9647 27.1418 37.8147 27.1418C36.7647 27.1418 35.9114 26.2885 35.9114 25.2385C35.9114 24.1885 36.7647 23.3352 37.8147 23.3352C43.0614 23.3318 47.3347 27.6052 47.3347 32.8551ZM60.1547 35.1785C59.9547 36.0651 59.1713 36.6618 58.298 36.6618C58.158 36.6618 58.0147 36.6451 57.8747 36.6151C56.848 36.3818 56.2047 35.3618 56.438 34.3385C56.7147 33.1218 56.8547 31.8651 56.8547 30.6051C56.8547 21.3451 49.3214 13.8085 40.058 13.8085C38.7947 13.8085 37.5414 13.9485 36.3247 14.2252C35.3047 14.4618 34.278 13.8151 34.048 12.7885C33.8147 11.7618 34.458 10.7418 35.4847 10.5118C36.978 10.1685 38.518 9.99848 40.0647 9.99848C51.4247 9.99848 60.668 19.2418 60.668 30.6018C60.668 32.1485 60.4947 33.6885 60.1547 35.1785Z" fill="black"/>
</svg>
