<svg width="84" height="84" viewBox="0 0 84 84" fill="none" xmlns="http://www.w3.org/2000/svg">
<path d="M42.0594 0C19.1177 0 0.441754 18.6599 0.433421 41.6016C0.429254 48.9349 2.35002 56.094 5.99169 62.4023L0.343903 83.3333L22.1457 78.182C28.2248 81.4986 35.0683 83.2396 42.035 83.2438H42.0513C64.9888 83.2438 83.6566 64.5798 83.6691 41.6423C83.6774 30.5214 79.353 20.0656 71.4946 12.1989C63.6363 4.33639 53.1927 0.00416667 42.0594 0ZM42.0513 8.33333C50.9513 8.3375 59.3152 11.8075 65.6027 18.0908C71.8902 24.3825 75.3441 32.7424 75.3358 41.6341C75.3274 59.9841 60.4014 74.9105 42.0431 74.9105C36.4889 74.9063 30.9873 73.5117 26.1414 70.8659L23.3338 69.3359L20.2332 70.0684L12.0301 72.0052L14.0321 64.5671L14.9354 61.2305L13.2101 58.2357C10.3018 53.2023 8.76259 47.4474 8.76675 41.6016C8.77509 23.2599 23.7054 8.33333 42.0513 8.33333ZM27.3296 22.3958C26.6337 22.3958 25.5087 22.6562 24.5545 23.6979C23.6003 24.7354 20.9087 27.2482 20.9087 32.3649C20.9087 37.4816 24.6359 42.4275 25.1567 43.1234C25.6734 43.815 32.3512 54.6468 42.922 58.8135C51.7054 62.276 53.4893 61.5926 55.3976 61.4176C57.3059 61.2468 61.5541 58.907 62.4207 56.4779C63.2874 54.0487 63.2894 51.9591 63.0311 51.5299C62.7727 51.0966 62.0789 50.8382 61.0373 50.3174C59.9998 49.7965 54.8869 47.2859 53.9328 46.9401C52.9786 46.5943 52.2807 46.4193 51.589 47.4609C50.8974 48.5026 48.9096 50.8383 48.3013 51.5299C47.6929 52.2258 47.0887 52.3193 46.047 51.7985C45.0054 51.2735 41.6561 50.1725 37.6811 46.6309C34.5895 43.8767 32.5033 40.4785 31.895 39.4368C31.2908 38.3993 31.838 37.8295 32.3589 37.3128C32.8255 36.8462 33.3924 36.0982 33.9132 35.4899C34.4299 34.8816 34.6091 34.4482 34.9549 33.7565C35.3007 33.0648 35.1237 32.4544 34.8654 31.9336C34.6071 31.4128 32.584 26.2771 31.659 24.2188C30.8798 22.4896 30.0569 22.4494 29.3153 22.4202C28.7111 22.3952 28.0212 22.3958 27.3296 22.3958Z" fill="black"/>
</svg>
